<?xml version="1.0" encoding="UTF-8" standalone="no"?>
<!DOCTYPE svg PUBLIC "-//W3C//DTD SVG 1.1//EN"
 "http://www.w3.org/Graphics/SVG/1.1/DTD/svg11.dtd">
<!-- Generated by graphviz version 12.2.1 (20241206.2353)
 -->
<!-- Title: G Pages: 1 -->
<svg width="922pt" height="1506pt"
 viewBox="0.00 0.00 922.34 1506.25" xmlns="http://www.w3.org/2000/svg" xmlns:xlink="http://www.w3.org/1999/xlink">
<g id="graph0" class="graph" transform="scale(1 1) rotate(0) translate(36 1470.25)">
<title>G</title>
<polygon fill="#f7f7f7" stroke="none" points="-36,36 -36,-1470.25 886.34,-1470.25 886.34,36 -36,36"/>
<!-- appmodelscomment -->
<g id="node1" class="node">
<title>appmodelscomment</title>
<polygon fill="none" stroke="black" points="104.09,-1262.25 4.09,-1262.25 4.09,-1162.25 104.09,-1162.25 104.09,-1262.25"/>
<polygon fill="#d3d3d3" stroke="none" points="4.09,-1223 4.09,-1262.25 104.09,-1262.25 104.09,-1223 4.09,-1223"/>
<polygon fill="none" stroke="black" points="4.09,-1223 4.09,-1262.25 104.09,-1262.25 104.09,-1223 4.09,-1223"/>
<text text-anchor="start" x="24.46" y="-1237.95" font-family="Helvetica Neue" font-size="14.00" fill="#333333">Comment</text>
</g>
<!-- appmodelsuser -->
<g id="node2" class="node">
<title>appmodelsuser</title>
<polygon fill="none" stroke="black" points="352.59,-641.25 252.59,-641.25 252.59,-541.25 352.59,-541.25 352.59,-641.25"/>
<polygon fill="#d3d3d3" stroke="none" points="252.59,-602 252.59,-641.25 352.59,-641.25 352.59,-602 252.59,-602"/>
<polygon fill="none" stroke="black" points="252.59,-602 252.59,-641.25 352.59,-641.25 352.59,-602 252.59,-602"/>
<text text-anchor="start" x="288.71" y="-616.95" font-family="Helvetica Neue" font-size="14.00" fill="#333333">User</text>
</g>
<!-- appmodelscomment&#45;&gt;appmodelsuser -->
<g id="edge1" class="edge">
<title>appmodelscomment:user_id&#45;&gt;appmodelsuser:id</title>
<path fill="none" stroke="#f77f00" stroke-width="1.8" d="M78.99,-1152.02C126.87,-1031.41 233.85,-761.89 279.86,-645.97"/>
<polygon fill="#f77f00" stroke="#f77f00" stroke-width="1.8" points="78.96,-1152.1 71.09,-1159.74 76.89,-1157.31 75.49,-1160.84 75.49,-1160.84 75.49,-1160.84 76.89,-1157.31 79.45,-1163.06 78.96,-1152.1"/>
<polygon fill="#f77f00" stroke="#f77f00" stroke-width="1.8" points="276.59,-640.66 285.89,-644.35 285.15,-646.21 275.85,-642.52 276.59,-640.66"/>
<polyline fill="none" stroke="#f77f00" stroke-width="1.8" points="281.61,-641.58 279.76,-646.23"/>
<text text-anchor="middle" x="178.34" y="-905.7" font-family="Helvetica Neue" font-size="14.00"> </text>
<text text-anchor="middle" x="148.68" y="-885.7" font-family="Helvetica Neue" font-size="14.00">BelongsTo</text>
<text text-anchor="middle" x="148.68" y="-868.45" font-family="Helvetica Neue" font-size="14.00">user</text>
</g>
<!-- appmodelspost -->
<g id="node3" class="node">
<title>appmodelspost</title>
<polygon fill="none" stroke="black" points="601.46,-1217.25 501.46,-1217.25 501.46,-1117.25 601.46,-1117.25 601.46,-1217.25"/>
<polygon fill="#d3d3d3" stroke="none" points="501.46,-1178 501.46,-1217.25 601.46,-1217.25 601.46,-1178 501.46,-1178"/>
<polygon fill="none" stroke="black" points="501.46,-1178 501.46,-1217.25 601.46,-1217.25 601.46,-1178 501.46,-1178"/>
<text text-anchor="start" x="538.71" y="-1192.95" font-family="Helvetica Neue" font-size="14.00" fill="#333333">Post</text>
</g>
<!-- appmodelscomment&#45;&gt;appmodelspost -->
<g id="edge2" class="edge">
<title>appmodelscomment:post_id&#45;&gt;appmodelspost:id</title>
<path fill="none" stroke="#f77f00" stroke-width="1.8" d="M113.81,-1238.94C144.64,-1252.96 176.09,-1267.25 176.09,-1267.25 176.09,-1267.25 429.09,-1267.25 429.09,-1267.25 429.09,-1267.25 464.84,-1237.79 497.53,-1210.86"/>
<polygon fill="#f77f00" stroke="#f77f00" stroke-width="1.8" points="113.95,-1239.01 106.71,-1230.77 108.85,-1236.69 105.4,-1235.12 105.4,-1235.12 105.4,-1235.12 108.85,-1236.69 102.99,-1238.97 113.95,-1239.01"/>
<polygon fill="#f77f00" stroke="#f77f00" stroke-width="1.8" points="497.14,-1204.7 503.5,-1212.42 501.96,-1213.69 495.6,-1205.97 497.14,-1204.7"/>
<polyline fill="none" stroke="#f77f00" stroke-width="1.8" points="501.09,-1207.92 497.23,-1211.1"/>
<text text-anchor="middle" x="302.59" y="-1271.2" font-family="Helvetica Neue" font-size="14.00"> </text>
<text text-anchor="middle" x="281.98" y="-1253.95" font-family="Helvetica Neue" font-size="14.00">BelongsTo</text>
<text text-anchor="middle" x="281.98" y="-1236.7" font-family="Helvetica Neue" font-size="14.00">post</text>
</g>
<!-- appmodelsuser&#45;&gt;appmodelspost -->
<g id="edge23" class="edge">
<title>appmodelsuser:id&#45;&gt;appmodelspost:user_id</title>
<path fill="none" stroke="#fcbf49" stroke-width="1.8" d="M317.7,-641.65C349.62,-755.61 424.59,-1023.25 424.59,-1023.25 424.59,-1023.25 464.62,-1069.05 499.53,-1108.99"/>
<polygon fill="#fcbf49" stroke="#fcbf49" stroke-width="1.8" points="499.46,-1108.9 502.65,-1119.39 503.15,-1113.12 505.64,-1115.98 505.64,-1115.98 505.64,-1115.98 503.15,-1113.12 509.43,-1113.47 499.46,-1108.9"/>
<text text-anchor="middle" x="426.84" y="-1031.23" font-family="Helvetica Neue" font-size="14.00"> </text>
<text text-anchor="middle" x="358.75" y="-873.98" font-family="Helvetica Neue" font-size="14.00">HasMany</text>
<text text-anchor="middle" x="358.75" y="-856.73" font-family="Helvetica Neue" font-size="14.00">posts</text>
</g>
<!-- appmodelsconversation -->
<g id="node4" class="node">
<title>appmodelsconversation</title>
<polygon fill="none" stroke="black" points="601.84,-668.25 501.09,-668.25 501.09,-568.25 601.84,-568.25 601.84,-668.25"/>
<polygon fill="#d3d3d3" stroke="none" points="501.09,-629 501.09,-668.25 601.84,-668.25 601.84,-629 501.09,-629"/>
<polygon fill="none" stroke="black" points="501.09,-629 501.09,-668.25 601.84,-668.25 601.84,-629 501.09,-629"/>
<text text-anchor="start" x="512.09" y="-643.95" font-family="Helvetica Neue" font-size="14.00" fill="#333333">Conversation</text>
</g>
<!-- appmodelsuser&#45;&gt;appmodelsconversation -->
<g id="edge17" class="edge">
<title>appmodelsuser:id&#45;&gt;appmodelsconversation:user1_id</title>
<path fill="none" stroke="#fcbf49" stroke-width="1.8" d="M352.8,-613.21C386.3,-628.16 424.59,-645.25 424.59,-645.25 424.59,-645.25 429.09,-645.25 429.09,-645.25 429.09,-645.25 459.87,-638.4 490.43,-631.6"/>
<polygon fill="#fcbf49" stroke="#fcbf49" stroke-width="1.8" points="490.39,-631.61 501.13,-633.83 495.86,-630.4 499.57,-629.57 499.57,-629.57 499.57,-629.57 495.86,-630.4 499.18,-625.05 490.39,-631.61"/>
<text text-anchor="middle" x="426.84" y="-649.2" font-family="Helvetica Neue" font-size="14.00"> </text>
<text text-anchor="middle" x="377.82" y="-664.15" font-family="Helvetica Neue" font-size="14.00">HasMany</text>
<text text-anchor="middle" x="377.82" y="-646.9" font-family="Helvetica Neue" font-size="14.00">conversations</text>
</g>
<!-- appmodelsmessage -->
<g id="node5" class="node">
<title>appmodelsmessage</title>
<polygon fill="none" stroke="black" points="850.34,-702.25 750.34,-702.25 750.34,-602.25 850.34,-602.25 850.34,-702.25"/>
<polygon fill="#d3d3d3" stroke="none" points="750.34,-663 750.34,-702.25 850.34,-702.25 850.34,-663 750.34,-663"/>
<polygon fill="none" stroke="black" points="750.34,-663 750.34,-702.25 850.34,-702.25 850.34,-663 750.34,-663"/>
<text text-anchor="start" x="774.09" y="-677.95" font-family="Helvetica Neue" font-size="14.00" fill="#333333">Message</text>
</g>
<!-- appmodelsuser&#45;&gt;appmodelsmessage -->
<g id="edge18" class="edge">
<title>appmodelsuser:id&#45;&gt;appmodelsmessage:user_id</title>
<path fill="none" stroke="#fcbf49" stroke-width="1.8" d="M352.8,-627.45C386.3,-652.09 424.59,-680.25 424.59,-680.25 424.59,-680.25 501.09,-704.25 501.09,-704.25 501.09,-704.25 601.84,-704.25 601.84,-704.25 601.84,-704.25 681.64,-683.24 739.79,-667.93"/>
<polygon fill="#fcbf49" stroke="#fcbf49" stroke-width="1.8" points="739.75,-667.94 750.57,-669.74 745.17,-666.51 748.84,-665.54 748.84,-665.54 748.84,-665.54 745.17,-666.51 748.28,-661.04 739.75,-667.94"/>
<text text-anchor="middle" x="551.46" y="-708.2" font-family="Helvetica Neue" font-size="14.00"> </text>
<text text-anchor="middle" x="508.14" y="-690.95" font-family="Helvetica Neue" font-size="14.00">HasMany</text>
<text text-anchor="middle" x="508.14" y="-673.7" font-family="Helvetica Neue" font-size="14.00">messages</text>
</g>
<!-- appmodelsprofile -->
<g id="node8" class="node">
<title>appmodelsprofile</title>
<polygon fill="none" stroke="black" points="601.46,-333.25 501.46,-333.25 501.46,-233.25 601.46,-233.25 601.46,-333.25"/>
<polygon fill="#d3d3d3" stroke="none" points="501.46,-294 501.46,-333.25 601.46,-333.25 601.46,-294 501.46,-294"/>
<polygon fill="none" stroke="black" points="501.46,-294 501.46,-333.25 601.46,-333.25 601.46,-294 501.46,-294"/>
<text text-anchor="start" x="532.34" y="-308.95" font-family="Helvetica Neue" font-size="14.00" fill="#333333">Profile</text>
</g>
<!-- appmodelsuser&#45;&gt;appmodelsprofile -->
<g id="edge24" class="edge">
<title>appmodelsuser:id&#45;&gt;appmodelsprofile:user_id</title>
<path fill="none" stroke="#d62828" stroke-width="1.8" d="M337.29,-541.04C373.09,-487.71 424.59,-411 424.59,-411 424.59,-411 463.27,-371.74 497.75,-336.75"/>
<polygon fill="#d62828" stroke="#d62828" stroke-width="1.8" points="496.81,-330.58 503.93,-337.6 502.53,-339.02 495.41,-332 496.81,-330.58"/>
<polyline fill="none" stroke="#d62828" stroke-width="1.8" points="501.07,-333.37 497.56,-336.94"/>
<text text-anchor="middle" x="426.84" y="-414.95" font-family="Helvetica Neue" font-size="14.00"> </text>
<text text-anchor="middle" x="385.99" y="-419.44" font-family="Helvetica Neue" font-size="14.00">HasOne</text>
<text text-anchor="middle" x="385.99" y="-402.19" font-family="Helvetica Neue" font-size="14.00">profile</text>
</g>
<!-- follows -->
<g id="node9" class="node">
<title>follows</title>
<polygon fill="none" stroke="black" points="601.46,-127.25 501.46,-127.25 501.46,-27.25 601.46,-27.25 601.46,-127.25"/>
<polygon fill="#d3d3d3" stroke="none" points="501.46,-88 501.46,-127.25 601.46,-127.25 601.46,-88 501.46,-88"/>
<polygon fill="none" stroke="black" points="501.46,-88 501.46,-127.25 601.46,-127.25 601.46,-88 501.46,-88"/>
<text text-anchor="start" x="536.84" y="-102.95" font-family="Helvetica Neue" font-size="14.00" fill="#333333">Pivot</text>
</g>
<!-- appmodelsuser&#45;&gt;follows -->
<g id="edge19" class="edge">
<title>appmodelsuser:id&#45;&gt;follows:follower_id</title>
<path fill="none" stroke="#003049" stroke-width="1.8" d="M323.16,-541.06C357.41,-453.25 424.59,-281 424.59,-281 424.59,-281 475.74,-198.19 512.83,-138.16"/>
<polygon fill="#003049" stroke="#003049" stroke-width="1.8" points="515.64,-140.28 517.91,-129.93 509.68,-136.6 515.64,-140.28"/>
<text text-anchor="middle" x="426.84" y="-284.95" font-family="Helvetica Neue" font-size="14.00"> </text>
<text text-anchor="middle" x="357.5" y="-354.02" font-family="Helvetica Neue" font-size="14.00">BelongsToMany</text>
<text text-anchor="middle" x="357.5" y="-336.77" font-family="Helvetica Neue" font-size="14.00">following</text>
</g>
<!-- appmodelsuser&#45;&gt;follows -->
<g id="edge21" class="edge">
<title>appmodelsuser:id&#45;&gt;follows:followee_id</title>
<path fill="none" stroke="#003049" stroke-width="1.8" d="M320.92,-540.92C354.38,-443.8 424.59,-240 424.59,-240 424.59,-240 468.07,-183.78 503.92,-137.43"/>
<polygon fill="#003049" stroke="#003049" stroke-width="1.8" points="506.65,-139.61 510,-129.56 501.11,-135.33 506.65,-139.61"/>
<text text-anchor="middle" x="426.84" y="-243.95" font-family="Helvetica Neue" font-size="14.00"> </text>
<text text-anchor="middle" x="347" y="-315.86" font-family="Helvetica Neue" font-size="14.00">BelongsToMany</text>
<text text-anchor="middle" x="347" y="-298.61" font-family="Helvetica Neue" font-size="14.00">followers</text>
</g>
<!-- appmodelspost&#45;&gt;appmodelscomment -->
<g id="edge15" class="edge">
<title>appmodelspost:id&#45;&gt;appmodelscomment:post_id</title>
<path fill="none" stroke="#fcbf49" stroke-width="1.8" d="M500.98,-1171.74C409.45,-1180.06 214.02,-1197.81 115.1,-1206.8"/>
<polygon fill="#fcbf49" stroke="#fcbf49" stroke-width="1.8" points="114.95,-1206.81 104.59,-1203.23 109.37,-1207.32 105.59,-1207.66 105.59,-1207.66 105.59,-1207.66 109.37,-1207.32 105.4,-1212.2 114.95,-1206.81"/>
<text text-anchor="middle" x="302.59" y="-1198.17" font-family="Helvetica Neue" font-size="14.00"> </text>
<text text-anchor="middle" x="276.17" y="-1175.97" font-family="Helvetica Neue" font-size="14.00">HasMany</text>
<text text-anchor="middle" x="276.17" y="-1158.72" font-family="Helvetica Neue" font-size="14.00">comments</text>
</g>
<!-- appmodelspost&#45;&gt;appmodelsuser -->
<g id="edge13" class="edge">
<title>appmodelspost:user_id&#45;&gt;appmodelsuser:id</title>
<path fill="none" stroke="#f77f00" stroke-width="1.8" d="M510.04,-1108.16C473.23,-1054.35 424.59,-983.25 424.59,-983.25 424.59,-983.25 353.95,-754.42 320.62,-646.43"/>
<polygon fill="#f77f00" stroke="#f77f00" stroke-width="1.8" points="510.08,-1108.22 512.01,-1119.02 513.24,-1112.84 515.38,-1115.98 515.38,-1115.98 515.38,-1115.98 513.24,-1112.84 519.44,-1113.93 510.08,-1108.22"/>
<polygon fill="#f77f00" stroke="#f77f00" stroke-width="1.8" points="314.67,-644.12 324.23,-641.18 324.82,-643.09 315.26,-646.04 314.67,-644.12"/>
<polyline fill="none" stroke="#f77f00" stroke-width="1.8" points="319.16,-641.69 320.63,-646.47"/>
<text text-anchor="middle" x="426.84" y="-992.35" font-family="Helvetica Neue" font-size="14.00"> </text>
<text text-anchor="middle" x="425.67" y="-873.85" font-family="Helvetica Neue" font-size="14.00">BelongsTo</text>
<text text-anchor="middle" x="425.67" y="-856.6" font-family="Helvetica Neue" font-size="14.00">user</text>
</g>
<!-- appmodelslike -->
<g id="node6" class="node">
<title>appmodelslike</title>
<polygon fill="none" stroke="black" points="850.34,-1137.25 750.34,-1137.25 750.34,-1037.25 850.34,-1037.25 850.34,-1137.25"/>
<polygon fill="#d3d3d3" stroke="none" points="750.34,-1098 750.34,-1137.25 850.34,-1137.25 850.34,-1098 750.34,-1098"/>
<polygon fill="none" stroke="black" points="750.34,-1098 750.34,-1137.25 850.34,-1137.25 850.34,-1098 750.34,-1098"/>
<text text-anchor="start" x="788.34" y="-1112.95" font-family="Helvetica Neue" font-size="14.00" fill="#333333">Like</text>
</g>
<!-- appmodelspost&#45;&gt;appmodelslike -->
<g id="edge14" class="edge">
<title>appmodelspost:id&#45;&gt;appmodelslike:post_id</title>
<path fill="none" stroke="#fcbf49" stroke-width="1.8" d="M601.83,-1151.25C641.6,-1138.36 697.67,-1120.2 739.91,-1106.51"/>
<polygon fill="#fcbf49" stroke="#fcbf49" stroke-width="1.8" points="739.97,-1106.49 750.87,-1107.69 745.3,-1104.76 748.91,-1103.59 748.91,-1103.59 748.91,-1103.59 745.3,-1104.76 748.1,-1099.12 739.97,-1106.49"/>
<text text-anchor="middle" x="676.09" y="-1131.2" font-family="Helvetica Neue" font-size="14.00"> </text>
<text text-anchor="middle" x="643.12" y="-1115.58" font-family="Helvetica Neue" font-size="14.00">HasMany</text>
<text text-anchor="middle" x="643.12" y="-1098.33" font-family="Helvetica Neue" font-size="14.00">likes</text>
</g>
<!-- appmodelsconversation&#45;&gt;appmodelsuser -->
<g id="edge3" class="edge">
<title>appmodelsconversation:user1_id&#45;&gt;appmodelsuser:id</title>
<path fill="none" stroke="#f77f00" stroke-width="1.8" d="M490.28,-613.95C457.92,-611.63 424.59,-609.25 424.59,-609.25 424.59,-609.25 389.81,-604.08 357.54,-599.28"/>
<polygon fill="#f77f00" stroke="#f77f00" stroke-width="1.8" points="490.14,-613.94 499.79,-619.14 495.72,-614.34 499.51,-614.61 499.51,-614.61 499.51,-614.61 495.72,-614.34 500.43,-610.16 490.14,-613.94"/>
<polygon fill="#f77f00" stroke="#f77f00" stroke-width="1.8" points="353.05,-603.66 354.53,-593.77 356.5,-594.07 355.03,-603.96 353.05,-603.66"/>
<polyline fill="none" stroke="#f77f00" stroke-width="1.8" points="352.8,-598.57 357.75,-599.31"/>
<text text-anchor="middle" x="426.84" y="-613.45" font-family="Helvetica Neue" font-size="14.00"> </text>
<text text-anchor="middle" x="392.89" y="-595.81" font-family="Helvetica Neue" font-size="14.00">BelongsTo</text>
<text text-anchor="middle" x="392.89" y="-578.56" font-family="Helvetica Neue" font-size="14.00">user1</text>
</g>
<!-- appmodelsconversation&#45;&gt;appmodelsuser -->
<g id="edge4" class="edge">
<title>appmodelsconversation:user2_id&#45;&gt;appmodelsuser:id</title>
<path fill="none" stroke="#f77f00" stroke-width="1.8" d="M490.43,-601.31C459.87,-592.69 429.09,-584 429.09,-584 429.09,-584 424.59,-584 424.59,-584 424.59,-584 389.81,-586.08 357.54,-588.02"/>
<polygon fill="#f77f00" stroke="#f77f00" stroke-width="1.8" points="490.54,-601.34 498.94,-608.39 495.93,-602.86 499.58,-603.89 499.58,-603.89 499.58,-603.89 495.93,-602.86 501.39,-599.73 490.54,-601.34"/>
<polygon fill="#f77f00" stroke="#f77f00" stroke-width="1.8" points="354.1,-593.23 353.5,-583.25 355.5,-583.13 356.09,-593.11 354.1,-593.23"/>
<polyline fill="none" stroke="#f77f00" stroke-width="1.8" points="352.8,-588.3 357.79,-588"/>
<text text-anchor="middle" x="426.84" y="-587.95" font-family="Helvetica Neue" font-size="14.00"> </text>
<text text-anchor="middle" x="455.87" y="-570.7" font-family="Helvetica Neue" font-size="14.00">BelongsTo</text>
<text text-anchor="middle" x="455.87" y="-553.45" font-family="Helvetica Neue" font-size="14.00">user2</text>
</g>
<!-- appmodelsconversation&#45;&gt;appmodelsmessage -->
<g id="edge5" class="edge">
<title>appmodelsconversation:id&#45;&gt;appmodelsmessage:conversation_id</title>
<path fill="none" stroke="#fcbf49" stroke-width="1.8" d="M602.12,-625.09C641.76,-630.55 697.42,-638.21 739.51,-644.01"/>
<polygon fill="#fcbf49" stroke="#fcbf49" stroke-width="1.8" points="739.67,-644.03 748.96,-649.86 745.22,-644.8 748.98,-645.32 748.98,-645.32 748.98,-645.32 745.22,-644.8 750.19,-640.94 739.67,-644.03"/>
<text text-anchor="middle" x="676.09" y="-639.2" font-family="Helvetica Neue" font-size="14.00"> </text>
<text text-anchor="middle" x="640.82" y="-621.25" font-family="Helvetica Neue" font-size="14.00">HasMany</text>
<text text-anchor="middle" x="640.82" y="-604" font-family="Helvetica Neue" font-size="14.00">messages</text>
</g>
<!-- appmodelsmessage&#45;&gt;appmodelsuser -->
<g id="edge8" class="edge">
<title>appmodelsmessage:user_id&#45;&gt;appmodelsuser:id</title>
<path fill="none" stroke="#f77f00" stroke-width="1.8" d="M741.23,-611.87C682.97,-571.38 601.84,-515 601.84,-515 601.84,-515 501.09,-515 501.09,-515 501.09,-515 415.91,-547.89 357.43,-570.46"/>
<polygon fill="#f77f00" stroke="#f77f00" stroke-width="1.8" points="741.3,-611.92 746.95,-621.32 745.9,-615.12 749.02,-617.28 749.02,-617.28 749.02,-617.28 745.9,-615.12 752.08,-613.93 741.3,-611.92"/>
<polygon fill="#f77f00" stroke="#f77f00" stroke-width="1.8" points="355.65,-576.51 352.05,-567.18 353.91,-566.46 357.51,-575.79 355.65,-576.51"/>
<polyline fill="none" stroke="#f77f00" stroke-width="1.8" points="352.91,-572.21 357.58,-570.4"/>
<text text-anchor="middle" x="551.46" y="-518.95" font-family="Helvetica Neue" font-size="14.00"> </text>
<text text-anchor="middle" x="528.59" y="-501.7" font-family="Helvetica Neue" font-size="14.00">BelongsTo</text>
<text text-anchor="middle" x="528.59" y="-484.45" font-family="Helvetica Neue" font-size="14.00">user</text>
</g>
<!-- appmodelsmessage&#45;&gt;appmodelsconversation -->
<g id="edge9" class="edge">
<title>appmodelsmessage:conversation_id&#45;&gt;appmodelsconversation:id</title>
<path fill="none" stroke="#f77f00" stroke-width="1.8" d="M740.61,-626.89C709.78,-613.58 678.34,-600 678.34,-600 678.34,-600 673.84,-600 673.84,-600 673.84,-600 639.19,-605.21 606.92,-610.06"/>
<polygon fill="#f77f00" stroke="#f77f00" stroke-width="1.8" points="740.39,-626.79 747.78,-634.89 745.53,-629.02 749.01,-630.52 749.01,-630.52 749.01,-630.52 745.53,-629.02 751.35,-626.63 740.39,-626.79"/>
<polygon fill="#f77f00" stroke="#f77f00" stroke-width="1.8" points="603.91,-615.57 602.42,-605.68 604.4,-605.38 605.89,-615.27 603.91,-615.57"/>
<polyline fill="none" stroke="#f77f00" stroke-width="1.8" points="602.18,-610.77 607.12,-610.03"/>
<text text-anchor="middle" x="676.09" y="-603.95" font-family="Helvetica Neue" font-size="14.00"> </text>
<text text-anchor="middle" x="714.79" y="-586.7" font-family="Helvetica Neue" font-size="14.00">BelongsTo</text>
<text text-anchor="middle" x="714.79" y="-569.45" font-family="Helvetica Neue" font-size="14.00">conversation</text>
</g>
<!-- appmodelslike&#45;&gt;appmodelsuser -->
<g id="edge6" class="edge">
<title>appmodelslike:user_id&#45;&gt;appmodelsuser:id</title>
<path fill="none" stroke="#f77f00" stroke-width="1.8" d="M742.29,-1033.82C637.41,-935.59 424.59,-736.25 424.59,-736.25 424.59,-736.25 382.89,-686.29 348.45,-645.02"/>
<polygon fill="#f77f00" stroke="#f77f00" stroke-width="1.8" points="742.22,-1033.75 746.44,-1043.87 746.31,-1037.58 749.08,-1040.18 749.08,-1040.18 749.08,-1040.18 746.31,-1037.58 752.6,-1037.31 742.22,-1033.75"/>
<polygon fill="#f77f00" stroke="#f77f00" stroke-width="1.8" points="342.37,-645.53 350.05,-639.12 351.33,-640.66 343.65,-647.06 342.37,-645.53"/>
<polyline fill="none" stroke="#f77f00" stroke-width="1.8" points="345.57,-641.56 348.77,-645.4"/>
<text text-anchor="middle" x="551.46" y="-904.01" font-family="Helvetica Neue" font-size="14.00"> </text>
<text text-anchor="middle" x="509.33" y="-831.12" font-family="Helvetica Neue" font-size="14.00">BelongsTo</text>
<text text-anchor="middle" x="509.33" y="-813.87" font-family="Helvetica Neue" font-size="14.00">user</text>
</g>
<!-- appmodelslike&#45;&gt;appmodelspost -->
<g id="edge7" class="edge">
<title>appmodelslike:post_id&#45;&gt;appmodelspost:id</title>
<path fill="none" stroke="#f77f00" stroke-width="1.8" d="M739.41,-1083.66C708.97,-1081.84 678.34,-1080 678.34,-1080 678.34,-1080 673.84,-1080 673.84,-1080 673.84,-1080 638.37,-1105.49 605.79,-1128.92"/>
<polygon fill="#f77f00" stroke="#f77f00" stroke-width="1.8" points="739.54,-1083.67 749.25,-1088.76 745.13,-1084 748.92,-1084.23 748.92,-1084.23 748.92,-1084.23 745.13,-1084 749.79,-1079.77 739.54,-1083.67"/>
<polygon fill="#f77f00" stroke="#f77f00" stroke-width="1.8" points="605.56,-1135.24 599.72,-1127.12 601.35,-1125.95 607.18,-1134.07 605.56,-1135.24"/>
<polyline fill="none" stroke="#f77f00" stroke-width="1.8" points="601.83,-1131.76 605.89,-1128.84"/>
<text text-anchor="middle" x="676.09" y="-1083.95" font-family="Helvetica Neue" font-size="14.00"> </text>
<text text-anchor="middle" x="635.73" y="-1071.99" font-family="Helvetica Neue" font-size="14.00">BelongsTo</text>
<text text-anchor="middle" x="635.73" y="-1054.74" font-family="Helvetica Neue" font-size="14.00">post</text>
</g>
<!-- appmodelsnotification -->
<g id="node7" class="node">
<title>appmodelsnotification</title>
<polygon fill="none" stroke="black" points="104.09,-641.25 4.09,-641.25 4.09,-541.25 104.09,-541.25 104.09,-641.25"/>
<polygon fill="#d3d3d3" stroke="none" points="4.09,-602 4.09,-641.25 104.09,-641.25 104.09,-602 4.09,-602"/>
<polygon fill="none" stroke="black" points="4.09,-602 4.09,-641.25 104.09,-641.25 104.09,-602 4.09,-602"/>
<text text-anchor="start" x="19.96" y="-616.95" font-family="Helvetica Neue" font-size="14.00" fill="#333333">Notification</text>
</g>
<!-- appmodelsnotification&#45;&gt;appmodelsuser -->
<g id="edge10" class="edge">
<title>appmodelsnotification:user_id&#45;&gt;appmodelsuser:id</title>
<path fill="none" stroke="#f77f00" stroke-width="1.8" d="M115.05,-591.25C155.54,-591.25 208.53,-591.25 247.68,-591.25"/>
<polygon fill="#f77f00" stroke="#f77f00" stroke-width="1.8" points="114.98,-591.25 104.98,-586.75 109.38,-591.25 105.58,-591.25 105.58,-591.25 105.58,-591.25 109.38,-591.25 104.98,-595.75 114.98,-591.25"/>
<polygon fill="#f77f00" stroke="#f77f00" stroke-width="1.8" points="251.38,-586.25 251.38,-596.25 249.38,-596.25 249.38,-586.25 251.38,-586.25"/>
<polyline fill="none" stroke="#f77f00" stroke-width="1.8" points="252.38,-591.25 247.38,-591.25"/>
<text text-anchor="middle" x="178.34" y="-595.2" font-family="Helvetica Neue" font-size="14.00"> </text>
<text text-anchor="middle" x="212.11" y="-577.95" font-family="Helvetica Neue" font-size="14.00">BelongsTo</text>
<text text-anchor="middle" x="212.11" y="-560.7" font-family="Helvetica Neue" font-size="14.00">user</text>
</g>
<!-- appmodelsnotification&#45;&gt;appmodelsuser -->
<g id="edge11" class="edge">
<title>appmodelsnotification:actor_id&#45;&gt;appmodelsuser:id</title>
<path fill="none" stroke="#f77f00" stroke-width="1.8" d="M114.61,-573.91C145.18,-565 176.09,-556 176.09,-556 176.09,-556 180.59,-556 180.59,-556 180.59,-556 215.37,-566.13 247.63,-575.53"/>
<polygon fill="#f77f00" stroke="#f77f00" stroke-width="1.8" points="114.48,-573.95 103.62,-572.42 109.1,-575.51 105.46,-576.58 105.46,-576.58 105.46,-576.58 109.1,-575.51 106.14,-581.06 114.48,-573.95"/>
<polygon fill="#f77f00" stroke="#f77f00" stroke-width="1.8" points="252.81,-571.83 250.01,-581.43 248.09,-580.87 250.89,-571.27 252.81,-571.83"/>
<polyline fill="none" stroke="#f77f00" stroke-width="1.8" points="252.37,-576.91 247.57,-575.51"/>
<text text-anchor="middle" x="178.34" y="-559.95" font-family="Helvetica Neue" font-size="14.00"> </text>
<text text-anchor="middle" x="150.46" y="-542.88" font-family="Helvetica Neue" font-size="14.00">BelongsTo</text>
<text text-anchor="middle" x="150.46" y="-525.63" font-family="Helvetica Neue" font-size="14.00">actor</text>
</g>
<!-- appmodelsnotification&#45;&gt;appmodelsnotification -->
<g id="edge12" class="edge">
<title>appmodelsnotification:subject_id&#45;&gt;appmodelsnotification</title>
<path fill="none" stroke="#003049" stroke-width="1.8" d="M33.24,-641.7C26.57,-677.59 33.52,-713.25 54.09,-713.25 72.24,-713.25 79.79,-685.46 76.72,-654.25"/>
<polygon fill="#003049" stroke="#003049" stroke-width="1.8" points="80.19,-653.8 75.32,-644.39 73.26,-654.79 80.19,-653.8"/>
<text text-anchor="middle" x="54.09" y="-717.2" font-family="Helvetica Neue" font-size="14.00"> </text>
<text text-anchor="middle" x="26.25" y="-694.51" font-family="Helvetica Neue" font-size="14.00">MorphTo</text>
<text text-anchor="middle" x="26.25" y="-677.26" font-family="Helvetica Neue" font-size="14.00">subject</text>
</g>
<!-- appmodelsprofile&#45;&gt;appmodelsuser -->
<g id="edge16" class="edge">
<title>appmodelsprofile:user_id&#45;&gt;appmodelsuser:id</title>
<path fill="none" stroke="#f77f00" stroke-width="1.8" d="M491.04,-299.18C458.44,-307.92 424.59,-317 424.59,-317 424.59,-317 362.94,-456.73 327.65,-536.71"/>
<polygon fill="#f77f00" stroke="#f77f00" stroke-width="1.8" points="490.83,-299.24 501.66,-300.99 496.24,-297.79 499.91,-296.8 499.91,-296.8 499.91,-296.8 496.24,-297.79 499.33,-292.3 490.83,-299.24"/>
<polygon fill="#f77f00" stroke="#f77f00" stroke-width="1.8" points="330.76,-542.05 321.61,-538.02 322.42,-536.19 331.56,-540.22 330.76,-542.05"/>
<polyline fill="none" stroke="#f77f00" stroke-width="1.8" points="325.78,-540.95 327.8,-536.37"/>
<text text-anchor="middle" x="426.84" y="-320.95" font-family="Helvetica Neue" font-size="14.00"> </text>
<text text-anchor="middle" x="420.75" y="-382.08" font-family="Helvetica Neue" font-size="14.00">BelongsTo</text>
<text text-anchor="middle" x="420.75" y="-364.83" font-family="Helvetica Neue" font-size="14.00">user</text>
</g>
<!-- follows&#45;&gt;appmodelsuser -->
<g id="edge20" class="edge">
<title>follows:followee_id&#45;&gt;appmodelsuser:id</title>
<path fill="none" stroke="#003049" stroke-width="1.8" d="M501.09,-60.07C467.49,-48.37 429.09,-35 429.09,-35 429.09,-35 424.59,-35 424.59,-35 424.59,-35 348.8,-383.38 317.19,-528.73"/>
<polygon fill="#003049" stroke="#003049" stroke-width="1.8" points="313.82,-527.73 315.12,-538.24 320.66,-529.22 313.82,-527.73"/>
<text text-anchor="middle" x="426.84" y="-38.95" font-family="Helvetica Neue" font-size="14.00"> </text>
<text text-anchor="middle" x="332.59" y="-229.11" font-family="Helvetica Neue" font-size="14.00">BelongsToMany</text>
<text text-anchor="middle" x="332.59" y="-211.86" font-family="Helvetica Neue" font-size="14.00">following</text>
</g>
<!-- follows&#45;&gt;appmodelsuser -->
<g id="edge22" class="edge">
<title>follows:follower_id&#45;&gt;appmodelsuser:id</title>
<path fill="none" stroke="#003049" stroke-width="1.8" d="M501.09,-45.83C467.49,-24.44 429.09,0 429.09,0 429.09,0 424.59,0 424.59,0 424.59,0 347.56,-376.4 316.42,-528.55"/>
<polygon fill="#003049" stroke="#003049" stroke-width="1.8" points="313.02,-527.67 314.45,-538.17 319.88,-529.08 313.02,-527.67"/>
<text text-anchor="middle" x="426.84" y="-3.95" font-family="Helvetica Neue" font-size="14.00"> </text>
<text text-anchor="middle" x="426.38" y="-206.96" font-family="Helvetica Neue" font-size="14.00">BelongsToMany</text>
<text text-anchor="middle" x="426.38" y="-189.71" font-family="Helvetica Neue" font-size="14.00">followers</text>
</g>
<!-- appmodelsfollow -->
<g id="node10" class="node">
<title>appmodelsfollow</title>
<polygon fill="none" stroke="black" points="104.09,-1434.25 4.09,-1434.25 4.09,-1334.25 104.09,-1334.25 104.09,-1434.25"/>
<polygon fill="#d3d3d3" stroke="none" points="4.09,-1395 4.09,-1434.25 104.09,-1434.25 104.09,-1395 4.09,-1395"/>
<polygon fill="none" stroke="black" points="4.09,-1395 4.09,-1434.25 104.09,-1434.25 104.09,-1395 4.09,-1395"/>
<text text-anchor="start" x="34.59" y="-1409.95" font-family="Helvetica Neue" font-size="14.00" fill="#333333">Follow</text>
</g>
</g>
</svg>
